<svg width="25" height="24" viewBox="0 0 25 24" fill="none" xmlns="http://www.w3.org/2000/svg">
<path d="M4.5 9.9375V21C4.5 21.1989 4.57902 21.3897 4.71967 21.5303C4.86032 21.671 5.05109 21.75 5.25 21.75H9.75V15.375C9.75 15.0766 9.86853 14.7905 10.0795 14.5795C10.2905 14.3685 10.5766 14.25 10.875 14.25H14.625C14.9234 14.25 15.2095 14.3685 15.4205 14.5795C15.6315 14.7905 15.75 15.0766 15.75 15.375V21.75H20.25C20.4489 21.75 20.6397 21.671 20.7803 21.5303C20.921 21.3897 21 21.1989 21 21V9.9375" stroke="#5C5D61" stroke-width="1.5" stroke-linecap="round" stroke-linejoin="round"/>
<path d="M23.25 12.0002L13.2605 2.43766C13.0261 2.19016 12.4781 2.18735 12.2395 2.43766L2.25 12.0002" stroke="#5C5D61" stroke-width="1.5" stroke-linecap="round" stroke-linejoin="round"/>
<path d="M19.5 8.39062V3H17.25V6.23438" stroke="#5C5D61" stroke-width="1.5" stroke-linecap="round" stroke-linejoin="round"/>
</svg>
