<svg width="10" height="10" viewBox="0 0 10 10" fill="none" xmlns="http://www.w3.org/2000/svg">
<path d="M1.67375 6.80875C1.73862 6.87387 1.78833 6.9525 1.81934 7.03903C1.85034 7.12557 1.86188 7.21787 1.85312 7.30937C1.80909 7.73284 1.72582 8.15131 1.60437 8.55937C2.47625 8.3575 3.00875 8.12375 3.25063 8.00125C3.38781 7.93177 3.54581 7.9153 3.69437 7.955C4.12019 8.06897 4.5592 8.12613 5 8.125C7.4975 8.125 9.375 6.37063 9.375 4.375C9.375 2.37937 7.4975 0.625 5 0.625C2.5025 0.625 0.625 2.38 0.625 4.375C0.625 5.2925 1.01063 6.14375 1.67375 6.80875ZM1.36562 9.24937C1.21754 9.27869 1.06897 9.30557 0.92 9.33C0.795 9.35 0.7 9.22 0.749375 9.10375C0.804721 8.97281 0.855584 8.84003 0.901875 8.70562L0.90375 8.69938C1.05875 8.24937 1.185 7.73188 1.23125 7.25C0.464375 6.48125 0 5.475 0 4.375C0 1.95875 2.23875 0 5 0C7.76125 0 10 1.95875 10 4.375C10 6.79125 7.76125 8.75 5 8.75C4.50475 8.7511 4.01153 8.6868 3.53312 8.55875C3.20812 8.72313 2.50875 9.0225 1.36562 9.24937Z" fill="#EBBB42"/>
</svg>
