<svg width="12" height="12" viewBox="0 0 12 12" fill="none" xmlns="http://www.w3.org/2000/svg">
<path d="M6.05 9.275L6 9.325L5.945 9.275C3.57 7.12 2 5.695 2 4.25C2 3.25 2.75 2.5 3.75 2.5C4.52 2.5 5.27 3 5.535 3.68H6.465C6.73 3 7.48 2.5 8.25 2.5C9.25 2.5 10 3.25 10 4.25C10 5.695 8.43 7.12 6.05 9.275ZM8.25 1.5C7.38 1.5 6.545 1.905 6 2.54C5.455 1.905 4.62 1.5 3.75 1.5C2.21 1.5 1 2.705 1 4.25C1 6.135 2.7 7.68 5.275 10.015L6 10.675L6.725 10.015C9.3 7.68 11 6.135 11 4.25C11 2.705 9.79 1.5 8.25 1.5Z" fill="#F24E1E"/>
</svg>
