<svg width="16" height="20" viewBox="0 0 16 20" fill="none" xmlns="http://www.w3.org/2000/svg">
<path id="Vector" d="M15.6095 14C15.5552 13.8785 15.4808 13.7669 15.3895 13.67L10.7595 9C10.5682 8.83617 10.3222 8.75057 10.0705 8.76029C9.8188 8.77001 9.58006 8.87434 9.40197 9.05244C9.22387 9.23053 9.11954 9.46927 9.10982 9.72095C9.1001 9.97262 9.18571 10.2187 9.34953 10.41L12.2695 13.33H5.26953C4.47388 13.33 3.71082 13.0139 3.14821 12.4513C2.5856 11.8887 2.26953 11.1256 2.26953 10.33V1C2.26953 0.734784 2.16417 0.48043 1.97664 0.292893C1.7891 0.105357 1.53475 0 1.26953 0C1.00431 0 0.749961 0.105357 0.562425 0.292893C0.374888 0.48043 0.269531 0.734784 0.269531 1V10.37C0.269531 11.6961 0.796315 12.9679 1.734 13.9055C2.67168 14.8432 3.94345 15.37 5.26953 15.37H12.2695L9.34953 18.29C9.2558 18.383 9.18141 18.4936 9.13064 18.6154C9.07987 18.7373 9.05373 18.868 9.05373 19C9.05373 19.132 9.07987 19.2627 9.13064 19.3846C9.18141 19.5064 9.2558 19.617 9.34953 19.71C9.44297 19.8027 9.55379 19.876 9.67562 19.9258C9.79746 19.9755 9.92793 20.0008 10.0595 20C10.3219 19.9989 10.5733 19.8947 10.7595 19.71L15.3895 15.08C15.4842 14.9858 15.559 14.8736 15.6095 14.75C15.7068 14.5095 15.7068 14.2405 15.6095 14Z" fill="black"/>
</svg>
