<svg width="32" height="32" viewBox="0 0 32 32" fill="none" xmlns="http://www.w3.org/2000/svg">
<rect x="1" y="1" width="30" height="30" rx="15" fill="#6F70C9"/>
<rect x="1" y="1" width="30" height="30" rx="15" stroke="white" stroke-width="2"/>
<path d="M18.4128 11.7554L8.8457 21.346V23.3849H10.8848L20.4754 13.8178L18.4128 11.7554Z" fill="white"/>
<path fill-rule="evenodd" clip-rule="evenodd" d="M17.7352 11.1593C17.9095 10.9845 18.1925 10.9844 18.367 11.1589L20.8412 13.6328C21.0158 13.8074 21.0156 14.0904 20.8409 14.2647L11.9598 23.1239C11.7924 23.2909 11.5656 23.3847 11.3291 23.3847H8.88314C8.73518 23.3847 8.61523 23.2648 8.61523 23.1168V20.6709C8.61523 20.4345 8.70902 20.2077 8.87601 20.0403L17.7352 11.1593ZM18.0525 13.3701L10.4013 21.0402V21.5987H10.9599L18.63 13.9475L18.0525 13.3701Z" fill="white"/>
<path d="M19.9606 9.18803L18.8804 10.2675C18.7059 10.4418 18.7059 10.7246 18.8803 10.899L21.1026 13.1217C21.277 13.2961 21.5598 13.2961 21.7341 13.1217L22.8146 12.0411C23.1809 11.6745 23.3867 11.1773 23.3867 10.659C23.3867 10.1406 23.1809 9.64351 22.8146 9.27685L22.7258 9.18803C22.5442 9.00643 22.3287 8.86238 22.0914 8.7641C21.8542 8.66582 21.6 8.61523 21.3432 8.61523C21.0864 8.61523 20.8322 8.66582 20.5949 8.7641C20.3577 8.86238 20.1422 9.00643 19.9606 9.18803Z" fill="white"/>
</svg>
